<svg width="28" height="28" viewBox="0 0 28 28" fill="none" xmlns="http://www.w3.org/2000/svg">
<rect x="2" y="2.41028" width="24" height="24" rx="4" fill="#38322E"/>
<rect x="2" y="2.41028" width="24" height="24" rx="4" stroke="#1C1917"/>
<path d="M16.4063 9.8428C17.5612 9.99611 18.6424 9.72289 19.6497 9.02315L20.5054 10.2551C19.4981 10.9548 18.8648 11.8726 18.6054 13.0084C18.352 14.1178 18.5316 15.1133 19.1441 15.9951L17.9122 16.8509C17.0477 15.6064 16.7913 14.2143 17.1431 12.6744C17.1507 12.6409 17.1586 12.6076 17.1667 12.5744L8.18619 18.8129L7.33041 17.581L16.3109 11.3425C16.277 11.3385 16.243 11.3343 16.2089 11.3297C14.6431 11.1219 13.428 10.3958 12.5635 9.15134L13.7955 8.29555C14.408 9.1773 15.2783 9.69305 16.4063 9.8428Z" fill="white"/>
</svg>
